<mxfile host="Electron" agent="Mozilla/5.0 (Windows NT 10.0; Win64; x64) AppleWebKit/537.36 (KHTML, like Gecko) draw.io/25.0.2 Chrome/128.0.6613.186 Electron/32.2.5 Safari/537.36" version="25.0.2">
  <diagram name="Seite-1" id="8IgW9C79q_cB_oyKi_JI">
    <mxGraphModel dx="988" dy="570" grid="1" gridSize="10" guides="1" tooltips="1" connect="1" arrows="1" fold="1" page="1" pageScale="1" pageWidth="1169" pageHeight="1654" math="0" shadow="0">
      <root>
        <mxCell id="0" />
        <mxCell id="1" parent="0" />
        <mxCell id="q0TIt2UwV6w1tuWzTM8D-1" value="" style="group;fillColor=#dae8fc;strokeColor=#6c8ebf;" vertex="1" connectable="0" parent="1">
          <mxGeometry x="330" y="100" width="160" height="36" as="geometry" />
        </mxCell>
        <mxCell id="q0TIt2UwV6w1tuWzTM8D-2" value="" style="rounded=1;whiteSpace=wrap;html=1;strokeWidth=4;fillColor=#dae8fc;strokeColor=#6c8ebf;" vertex="1" parent="q0TIt2UwV6w1tuWzTM8D-1">
          <mxGeometry width="160" height="36" as="geometry" />
        </mxCell>
        <mxCell id="q0TIt2UwV6w1tuWzTM8D-3" value="" style="ellipse;whiteSpace=wrap;html=1;aspect=fixed;strokeWidth=3;fillColor=#dae8fc;strokeColor=#6c8ebf;" vertex="1" parent="q0TIt2UwV6w1tuWzTM8D-1">
          <mxGeometry x="20" y="12" width="12" height="12" as="geometry" />
        </mxCell>
        <mxCell id="q0TIt2UwV6w1tuWzTM8D-4" value="" style="rounded=1;whiteSpace=wrap;html=1;strokeWidth=3;fillColor=#dae8fc;strokeColor=#6c8ebf;" vertex="1" parent="q0TIt2UwV6w1tuWzTM8D-1">
          <mxGeometry x="54" y="6" width="28" height="10" as="geometry" />
        </mxCell>
        <mxCell id="q0TIt2UwV6w1tuWzTM8D-5" value="" style="rounded=1;whiteSpace=wrap;html=1;strokeWidth=3;fillColor=#dae8fc;strokeColor=#6c8ebf;" vertex="1" parent="q0TIt2UwV6w1tuWzTM8D-1">
          <mxGeometry x="88" y="6" width="28" height="10" as="geometry" />
        </mxCell>
        <mxCell id="q0TIt2UwV6w1tuWzTM8D-6" value="" style="rounded=1;whiteSpace=wrap;html=1;strokeWidth=3;fillColor=#dae8fc;strokeColor=#6c8ebf;" vertex="1" parent="q0TIt2UwV6w1tuWzTM8D-1">
          <mxGeometry x="122" y="6" width="28" height="10" as="geometry" />
        </mxCell>
        <mxCell id="q0TIt2UwV6w1tuWzTM8D-7" value="" style="rounded=1;whiteSpace=wrap;html=1;strokeWidth=3;fillColor=#dae8fc;strokeColor=#6c8ebf;" vertex="1" parent="q0TIt2UwV6w1tuWzTM8D-1">
          <mxGeometry x="54" y="20" width="28" height="10" as="geometry" />
        </mxCell>
        <mxCell id="q0TIt2UwV6w1tuWzTM8D-8" value="" style="rounded=1;whiteSpace=wrap;html=1;strokeWidth=3;fillColor=#dae8fc;strokeColor=#6c8ebf;" vertex="1" parent="q0TIt2UwV6w1tuWzTM8D-1">
          <mxGeometry x="88" y="20" width="28" height="10" as="geometry" />
        </mxCell>
        <mxCell id="q0TIt2UwV6w1tuWzTM8D-9" value="" style="rounded=1;whiteSpace=wrap;html=1;strokeWidth=3;fillColor=#dae8fc;strokeColor=#6c8ebf;" vertex="1" parent="q0TIt2UwV6w1tuWzTM8D-1">
          <mxGeometry x="122" y="20" width="28" height="10" as="geometry" />
        </mxCell>
        <mxCell id="q0TIt2UwV6w1tuWzTM8D-10" value="&lt;b&gt;&lt;font style=&quot;font-size: 19px;&quot;&gt;Naemon&lt;/font&gt;&lt;/b&gt;" style="rounded=1;whiteSpace=wrap;html=1;fillColor=#dae8fc;strokeColor=#6c8ebf;fontSize=20;" vertex="1" parent="1">
          <mxGeometry x="416" y="140" width="90" height="26" as="geometry" />
        </mxCell>
        <mxCell id="q0TIt2UwV6w1tuWzTM8D-21" value="" style="group" vertex="1" connectable="0" parent="1">
          <mxGeometry x="330" y="270" width="180" height="66" as="geometry" />
        </mxCell>
        <mxCell id="q0TIt2UwV6w1tuWzTM8D-11" value="" style="group;fillColor=#d5e8d4;strokeColor=#82b366;" vertex="1" connectable="0" parent="q0TIt2UwV6w1tuWzTM8D-21">
          <mxGeometry width="160" height="36" as="geometry" />
        </mxCell>
        <mxCell id="q0TIt2UwV6w1tuWzTM8D-12" value="" style="rounded=1;whiteSpace=wrap;html=1;strokeWidth=4;fillColor=#d5e8d4;strokeColor=#82b366;" vertex="1" parent="q0TIt2UwV6w1tuWzTM8D-11">
          <mxGeometry width="160" height="36" as="geometry" />
        </mxCell>
        <mxCell id="q0TIt2UwV6w1tuWzTM8D-13" value="" style="ellipse;whiteSpace=wrap;html=1;aspect=fixed;strokeWidth=3;fillColor=#d5e8d4;strokeColor=#82b366;" vertex="1" parent="q0TIt2UwV6w1tuWzTM8D-11">
          <mxGeometry x="20" y="12" width="12" height="12" as="geometry" />
        </mxCell>
        <mxCell id="q0TIt2UwV6w1tuWzTM8D-14" value="" style="rounded=1;whiteSpace=wrap;html=1;strokeWidth=3;fillColor=#d5e8d4;strokeColor=#82b366;" vertex="1" parent="q0TIt2UwV6w1tuWzTM8D-11">
          <mxGeometry x="54" y="6" width="28" height="10" as="geometry" />
        </mxCell>
        <mxCell id="q0TIt2UwV6w1tuWzTM8D-15" value="" style="rounded=1;whiteSpace=wrap;html=1;strokeWidth=3;fillColor=#d5e8d4;strokeColor=#82b366;" vertex="1" parent="q0TIt2UwV6w1tuWzTM8D-11">
          <mxGeometry x="88" y="6" width="28" height="10" as="geometry" />
        </mxCell>
        <mxCell id="q0TIt2UwV6w1tuWzTM8D-16" value="" style="rounded=1;whiteSpace=wrap;html=1;strokeWidth=3;fillColor=#d5e8d4;strokeColor=#82b366;" vertex="1" parent="q0TIt2UwV6w1tuWzTM8D-11">
          <mxGeometry x="122" y="6" width="28" height="10" as="geometry" />
        </mxCell>
        <mxCell id="q0TIt2UwV6w1tuWzTM8D-17" value="" style="rounded=1;whiteSpace=wrap;html=1;strokeWidth=3;fillColor=#d5e8d4;strokeColor=#82b366;" vertex="1" parent="q0TIt2UwV6w1tuWzTM8D-11">
          <mxGeometry x="54" y="20" width="28" height="10" as="geometry" />
        </mxCell>
        <mxCell id="q0TIt2UwV6w1tuWzTM8D-18" value="" style="rounded=1;whiteSpace=wrap;html=1;strokeWidth=3;fillColor=#d5e8d4;strokeColor=#82b366;" vertex="1" parent="q0TIt2UwV6w1tuWzTM8D-11">
          <mxGeometry x="88" y="20" width="28" height="10" as="geometry" />
        </mxCell>
        <mxCell id="q0TIt2UwV6w1tuWzTM8D-19" value="" style="rounded=1;whiteSpace=wrap;html=1;strokeWidth=3;fillColor=#d5e8d4;strokeColor=#82b366;" vertex="1" parent="q0TIt2UwV6w1tuWzTM8D-11">
          <mxGeometry x="122" y="20" width="28" height="10" as="geometry" />
        </mxCell>
        <mxCell id="q0TIt2UwV6w1tuWzTM8D-20" value="&lt;b&gt;&lt;font style=&quot;font-size: 19px;&quot;&gt;Monitor1&lt;/font&gt;&lt;/b&gt;" style="rounded=1;whiteSpace=wrap;html=1;fillColor=#d5e8d4;strokeColor=#82b366;fontSize=20;" vertex="1" parent="q0TIt2UwV6w1tuWzTM8D-21">
          <mxGeometry x="90" y="40" width="90" height="26" as="geometry" />
        </mxCell>
        <mxCell id="q0TIt2UwV6w1tuWzTM8D-34" value="&lt;font style=&quot;font-size: 18px;&quot; color=&quot;#666666&quot;&gt;Switch 1&lt;/font&gt;&lt;div&gt;&lt;font color=&quot;#666666&quot;&gt;&lt;br&gt;&lt;/font&gt;&lt;/div&gt;&lt;div&gt;&lt;font color=&quot;#666666&quot;&gt;&lt;br&gt;&lt;/font&gt;&lt;/div&gt;&lt;div&gt;&lt;font color=&quot;#666666&quot;&gt;&lt;br&gt;&lt;/font&gt;&lt;/div&gt;&lt;div&gt;&lt;font color=&quot;#666666&quot;&gt;&lt;br&gt;&lt;/font&gt;&lt;/div&gt;&lt;div&gt;&lt;font color=&quot;#666666&quot;&gt;&lt;br&gt;&lt;/font&gt;&lt;/div&gt;&lt;div&gt;&lt;font color=&quot;#666666&quot;&gt;&lt;br&gt;&lt;/font&gt;&lt;/div&gt;&lt;div&gt;&lt;font color=&quot;#666666&quot;&gt;&lt;br&gt;&lt;/font&gt;&lt;/div&gt;&lt;div&gt;&lt;font color=&quot;#666666&quot;&gt;&lt;br&gt;&lt;/font&gt;&lt;/div&gt;&lt;div&gt;&lt;br&gt;&lt;/div&gt;" style="rounded=1;whiteSpace=wrap;html=1;fillColor=#d5e8d4;strokeColor=#82b366;container=0;" vertex="1" parent="1">
          <mxGeometry x="340" y="402" width="160" height="160" as="geometry" />
        </mxCell>
        <mxCell id="q0TIt2UwV6w1tuWzTM8D-35" value="" style="html=1;shadow=0;dashed=0;align=center;verticalAlign=middle;shape=mxgraph.arrows2.arrow;dy=0.67;dx=21.67;direction=north;notch=0;strokeColor=#666666;rotation=90;fillColor=#f5f5f5;sketch=1;curveFitting=1;jiggle=2;fontColor=#333333;container=0;" vertex="1" parent="1">
          <mxGeometry x="410" y="400" width="50" height="78" as="geometry" />
        </mxCell>
        <mxCell id="q0TIt2UwV6w1tuWzTM8D-36" value="" style="html=1;shadow=0;dashed=0;align=center;verticalAlign=middle;shape=mxgraph.arrows2.arrow;dy=0.67;dx=21.67;direction=north;notch=0;strokeColor=#666666;rotation=90;fillColor=#f5f5f5;fontColor=#333333;sketch=1;curveFitting=1;jiggle=2;container=0;" vertex="1" parent="1">
          <mxGeometry x="426" y="466" width="50" height="70" as="geometry" />
        </mxCell>
        <mxCell id="q0TIt2UwV6w1tuWzTM8D-37" value="" style="html=1;shadow=0;dashed=0;align=center;verticalAlign=middle;shape=mxgraph.arrows2.arrow;dy=0.67;dx=21.67;direction=north;notch=0;strokeColor=#666666;rotation=-90;fillColor=#f5f5f5;fontColor=#333333;sketch=1;curveFitting=1;jiggle=2;container=0;" vertex="1" parent="1">
          <mxGeometry x="364" y="434" width="50" height="70" as="geometry" />
        </mxCell>
        <mxCell id="q0TIt2UwV6w1tuWzTM8D-38" value="" style="html=1;shadow=0;dashed=0;align=center;verticalAlign=middle;shape=mxgraph.arrows2.arrow;dy=0.67;dx=21.67;direction=north;notch=0;strokeColor=#666666;rotation=-90;fillColor=#f5f5f5;fontColor=#333333;sketch=1;curveFitting=1;jiggle=2;container=0;" vertex="1" parent="1">
          <mxGeometry x="381" y="494" width="50" height="70" as="geometry" />
        </mxCell>
        <mxCell id="q0TIt2UwV6w1tuWzTM8D-39" value="" style="group" vertex="1" connectable="0" parent="1">
          <mxGeometry x="20" y="620" width="180" height="66" as="geometry" />
        </mxCell>
        <mxCell id="q0TIt2UwV6w1tuWzTM8D-40" value="" style="group;fillColor=#d5e8d4;strokeColor=#82b366;" vertex="1" connectable="0" parent="q0TIt2UwV6w1tuWzTM8D-39">
          <mxGeometry width="160" height="36" as="geometry" />
        </mxCell>
        <mxCell id="q0TIt2UwV6w1tuWzTM8D-41" value="" style="rounded=1;whiteSpace=wrap;html=1;strokeWidth=4;fillColor=#d5e8d4;strokeColor=#82b366;" vertex="1" parent="q0TIt2UwV6w1tuWzTM8D-40">
          <mxGeometry width="160" height="36" as="geometry" />
        </mxCell>
        <mxCell id="q0TIt2UwV6w1tuWzTM8D-42" value="" style="ellipse;whiteSpace=wrap;html=1;aspect=fixed;strokeWidth=3;fillColor=#d5e8d4;strokeColor=#82b366;" vertex="1" parent="q0TIt2UwV6w1tuWzTM8D-40">
          <mxGeometry x="20" y="12" width="12" height="12" as="geometry" />
        </mxCell>
        <mxCell id="q0TIt2UwV6w1tuWzTM8D-43" value="" style="rounded=1;whiteSpace=wrap;html=1;strokeWidth=3;fillColor=#d5e8d4;strokeColor=#82b366;" vertex="1" parent="q0TIt2UwV6w1tuWzTM8D-40">
          <mxGeometry x="54" y="6" width="28" height="10" as="geometry" />
        </mxCell>
        <mxCell id="q0TIt2UwV6w1tuWzTM8D-44" value="" style="rounded=1;whiteSpace=wrap;html=1;strokeWidth=3;fillColor=#d5e8d4;strokeColor=#82b366;" vertex="1" parent="q0TIt2UwV6w1tuWzTM8D-40">
          <mxGeometry x="88" y="6" width="28" height="10" as="geometry" />
        </mxCell>
        <mxCell id="q0TIt2UwV6w1tuWzTM8D-45" value="" style="rounded=1;whiteSpace=wrap;html=1;strokeWidth=3;fillColor=#d5e8d4;strokeColor=#82b366;" vertex="1" parent="q0TIt2UwV6w1tuWzTM8D-40">
          <mxGeometry x="122" y="6" width="28" height="10" as="geometry" />
        </mxCell>
        <mxCell id="q0TIt2UwV6w1tuWzTM8D-46" value="" style="rounded=1;whiteSpace=wrap;html=1;strokeWidth=3;fillColor=#d5e8d4;strokeColor=#82b366;" vertex="1" parent="q0TIt2UwV6w1tuWzTM8D-40">
          <mxGeometry x="54" y="20" width="28" height="10" as="geometry" />
        </mxCell>
        <mxCell id="q0TIt2UwV6w1tuWzTM8D-47" value="" style="rounded=1;whiteSpace=wrap;html=1;strokeWidth=3;fillColor=#d5e8d4;strokeColor=#82b366;" vertex="1" parent="q0TIt2UwV6w1tuWzTM8D-40">
          <mxGeometry x="88" y="20" width="28" height="10" as="geometry" />
        </mxCell>
        <mxCell id="q0TIt2UwV6w1tuWzTM8D-48" value="" style="rounded=1;whiteSpace=wrap;html=1;strokeWidth=3;fillColor=#d5e8d4;strokeColor=#82b366;" vertex="1" parent="q0TIt2UwV6w1tuWzTM8D-40">
          <mxGeometry x="122" y="20" width="28" height="10" as="geometry" />
        </mxCell>
        <mxCell id="q0TIt2UwV6w1tuWzTM8D-49" value="&lt;b&gt;&lt;font style=&quot;font-size: 19px;&quot;&gt;File1&lt;/font&gt;&lt;/b&gt;" style="rounded=1;whiteSpace=wrap;html=1;fillColor=#d5e8d4;strokeColor=#82b366;fontSize=20;" vertex="1" parent="q0TIt2UwV6w1tuWzTM8D-39">
          <mxGeometry x="90" y="40" width="90" height="26" as="geometry" />
        </mxCell>
        <mxCell id="q0TIt2UwV6w1tuWzTM8D-50" value="" style="group" vertex="1" connectable="0" parent="1">
          <mxGeometry x="251" y="620" width="180" height="66" as="geometry" />
        </mxCell>
        <mxCell id="q0TIt2UwV6w1tuWzTM8D-51" value="" style="group;fillColor=#d5e8d4;strokeColor=#82b366;" vertex="1" connectable="0" parent="q0TIt2UwV6w1tuWzTM8D-50">
          <mxGeometry width="160" height="36" as="geometry" />
        </mxCell>
        <mxCell id="q0TIt2UwV6w1tuWzTM8D-52" value="" style="rounded=1;whiteSpace=wrap;html=1;strokeWidth=4;fillColor=#d5e8d4;strokeColor=#82b366;" vertex="1" parent="q0TIt2UwV6w1tuWzTM8D-51">
          <mxGeometry width="160" height="36" as="geometry" />
        </mxCell>
        <mxCell id="q0TIt2UwV6w1tuWzTM8D-53" value="" style="ellipse;whiteSpace=wrap;html=1;aspect=fixed;strokeWidth=3;fillColor=#d5e8d4;strokeColor=#82b366;" vertex="1" parent="q0TIt2UwV6w1tuWzTM8D-51">
          <mxGeometry x="20" y="12" width="12" height="12" as="geometry" />
        </mxCell>
        <mxCell id="q0TIt2UwV6w1tuWzTM8D-54" value="" style="rounded=1;whiteSpace=wrap;html=1;strokeWidth=3;fillColor=#d5e8d4;strokeColor=#82b366;" vertex="1" parent="q0TIt2UwV6w1tuWzTM8D-51">
          <mxGeometry x="54" y="6" width="28" height="10" as="geometry" />
        </mxCell>
        <mxCell id="q0TIt2UwV6w1tuWzTM8D-55" value="" style="rounded=1;whiteSpace=wrap;html=1;strokeWidth=3;fillColor=#d5e8d4;strokeColor=#82b366;" vertex="1" parent="q0TIt2UwV6w1tuWzTM8D-51">
          <mxGeometry x="88" y="6" width="28" height="10" as="geometry" />
        </mxCell>
        <mxCell id="q0TIt2UwV6w1tuWzTM8D-56" value="" style="rounded=1;whiteSpace=wrap;html=1;strokeWidth=3;fillColor=#d5e8d4;strokeColor=#82b366;" vertex="1" parent="q0TIt2UwV6w1tuWzTM8D-51">
          <mxGeometry x="122" y="6" width="28" height="10" as="geometry" />
        </mxCell>
        <mxCell id="q0TIt2UwV6w1tuWzTM8D-57" value="" style="rounded=1;whiteSpace=wrap;html=1;strokeWidth=3;fillColor=#d5e8d4;strokeColor=#82b366;" vertex="1" parent="q0TIt2UwV6w1tuWzTM8D-51">
          <mxGeometry x="54" y="20" width="28" height="10" as="geometry" />
        </mxCell>
        <mxCell id="q0TIt2UwV6w1tuWzTM8D-58" value="" style="rounded=1;whiteSpace=wrap;html=1;strokeWidth=3;fillColor=#d5e8d4;strokeColor=#82b366;" vertex="1" parent="q0TIt2UwV6w1tuWzTM8D-51">
          <mxGeometry x="88" y="20" width="28" height="10" as="geometry" />
        </mxCell>
        <mxCell id="q0TIt2UwV6w1tuWzTM8D-59" value="" style="rounded=1;whiteSpace=wrap;html=1;strokeWidth=3;fillColor=#d5e8d4;strokeColor=#82b366;" vertex="1" parent="q0TIt2UwV6w1tuWzTM8D-51">
          <mxGeometry x="122" y="20" width="28" height="10" as="geometry" />
        </mxCell>
        <mxCell id="q0TIt2UwV6w1tuWzTM8D-60" value="&lt;b&gt;&lt;font style=&quot;font-size: 19px;&quot;&gt;Web1&lt;/font&gt;&lt;/b&gt;" style="rounded=1;whiteSpace=wrap;html=1;fillColor=#d5e8d4;strokeColor=#82b366;fontSize=20;" vertex="1" parent="q0TIt2UwV6w1tuWzTM8D-50">
          <mxGeometry x="90" y="40" width="90" height="26" as="geometry" />
        </mxCell>
        <mxCell id="q0TIt2UwV6w1tuWzTM8D-61" value="" style="group" vertex="1" connectable="0" parent="1">
          <mxGeometry x="470" y="610" width="180" height="66" as="geometry" />
        </mxCell>
        <mxCell id="q0TIt2UwV6w1tuWzTM8D-62" value="" style="group;fillColor=#d5e8d4;strokeColor=#82b366;" vertex="1" connectable="0" parent="q0TIt2UwV6w1tuWzTM8D-61">
          <mxGeometry width="160" height="36" as="geometry" />
        </mxCell>
        <mxCell id="q0TIt2UwV6w1tuWzTM8D-63" value="" style="rounded=1;whiteSpace=wrap;html=1;strokeWidth=4;fillColor=#d5e8d4;strokeColor=#82b366;" vertex="1" parent="q0TIt2UwV6w1tuWzTM8D-62">
          <mxGeometry width="160" height="36" as="geometry" />
        </mxCell>
        <mxCell id="q0TIt2UwV6w1tuWzTM8D-64" value="" style="ellipse;whiteSpace=wrap;html=1;aspect=fixed;strokeWidth=3;fillColor=#d5e8d4;strokeColor=#82b366;" vertex="1" parent="q0TIt2UwV6w1tuWzTM8D-62">
          <mxGeometry x="20" y="12" width="12" height="12" as="geometry" />
        </mxCell>
        <mxCell id="q0TIt2UwV6w1tuWzTM8D-65" value="" style="rounded=1;whiteSpace=wrap;html=1;strokeWidth=3;fillColor=#d5e8d4;strokeColor=#82b366;" vertex="1" parent="q0TIt2UwV6w1tuWzTM8D-62">
          <mxGeometry x="54" y="6" width="28" height="10" as="geometry" />
        </mxCell>
        <mxCell id="q0TIt2UwV6w1tuWzTM8D-66" value="" style="rounded=1;whiteSpace=wrap;html=1;strokeWidth=3;fillColor=#d5e8d4;strokeColor=#82b366;" vertex="1" parent="q0TIt2UwV6w1tuWzTM8D-62">
          <mxGeometry x="88" y="6" width="28" height="10" as="geometry" />
        </mxCell>
        <mxCell id="q0TIt2UwV6w1tuWzTM8D-67" value="" style="rounded=1;whiteSpace=wrap;html=1;strokeWidth=3;fillColor=#d5e8d4;strokeColor=#82b366;" vertex="1" parent="q0TIt2UwV6w1tuWzTM8D-62">
          <mxGeometry x="122" y="6" width="28" height="10" as="geometry" />
        </mxCell>
        <mxCell id="q0TIt2UwV6w1tuWzTM8D-68" value="" style="rounded=1;whiteSpace=wrap;html=1;strokeWidth=3;fillColor=#d5e8d4;strokeColor=#82b366;" vertex="1" parent="q0TIt2UwV6w1tuWzTM8D-62">
          <mxGeometry x="54" y="20" width="28" height="10" as="geometry" />
        </mxCell>
        <mxCell id="q0TIt2UwV6w1tuWzTM8D-69" value="" style="rounded=1;whiteSpace=wrap;html=1;strokeWidth=3;fillColor=#d5e8d4;strokeColor=#82b366;" vertex="1" parent="q0TIt2UwV6w1tuWzTM8D-62">
          <mxGeometry x="88" y="20" width="28" height="10" as="geometry" />
        </mxCell>
        <mxCell id="q0TIt2UwV6w1tuWzTM8D-70" value="" style="rounded=1;whiteSpace=wrap;html=1;strokeWidth=3;fillColor=#d5e8d4;strokeColor=#82b366;" vertex="1" parent="q0TIt2UwV6w1tuWzTM8D-62">
          <mxGeometry x="122" y="20" width="28" height="10" as="geometry" />
        </mxCell>
        <mxCell id="q0TIt2UwV6w1tuWzTM8D-71" value="&lt;b&gt;&lt;font style=&quot;font-size: 19px;&quot;&gt;Email1&lt;/font&gt;&lt;/b&gt;" style="rounded=1;whiteSpace=wrap;html=1;fillColor=#d5e8d4;strokeColor=#82b366;fontSize=20;" vertex="1" parent="q0TIt2UwV6w1tuWzTM8D-61">
          <mxGeometry x="90" y="40" width="90" height="26" as="geometry" />
        </mxCell>
        <mxCell id="q0TIt2UwV6w1tuWzTM8D-90" value="&lt;font style=&quot;font-size: 18px;&quot; color=&quot;#666666&quot;&gt;Firewall1&lt;/font&gt;&lt;div&gt;&lt;font style=&quot;font-size: 18px;&quot; color=&quot;#666666&quot;&gt;&lt;br&gt;&lt;/font&gt;&lt;/div&gt;&lt;div&gt;&lt;font style=&quot;font-size: 18px;&quot; color=&quot;#666666&quot;&gt;&lt;br&gt;&lt;/font&gt;&lt;/div&gt;&lt;div&gt;&lt;font style=&quot;font-size: 18px;&quot; color=&quot;#666666&quot;&gt;&lt;br&gt;&lt;/font&gt;&lt;/div&gt;&lt;div&gt;&lt;font style=&quot;font-size: 18px;&quot; color=&quot;#666666&quot;&gt;&lt;br&gt;&lt;/font&gt;&lt;/div&gt;&lt;div&gt;&lt;br&gt;&lt;/div&gt;&lt;div&gt;&lt;font style=&quot;font-size: 18px;&quot; color=&quot;#666666&quot;&gt;&lt;br&gt;&lt;/font&gt;&lt;/div&gt;&lt;div&gt;&lt;br&gt;&lt;/div&gt;" style="ellipse;whiteSpace=wrap;html=1;aspect=fixed;fillColor=#d5e8d4;strokeColor=#82b366;" vertex="1" parent="1">
          <mxGeometry x="800" y="610" width="190" height="190" as="geometry" />
        </mxCell>
        <mxCell id="q0TIt2UwV6w1tuWzTM8D-91" value="" style="rounded=1;whiteSpace=wrap;html=1;strokeWidth=1;sketch=1;curveFitting=1;jiggle=2;fillColor=#f5f5f5;strokeColor=#666666;fontColor=#333333;" vertex="1" parent="1">
          <mxGeometry x="850" y="725" width="40" height="20" as="geometry" />
        </mxCell>
        <mxCell id="q0TIt2UwV6w1tuWzTM8D-92" value="" style="rounded=1;whiteSpace=wrap;html=1;strokeWidth=1;sketch=1;curveFitting=1;jiggle=2;fillColor=#f5f5f5;strokeColor=#666666;fontColor=#333333;" vertex="1" parent="1">
          <mxGeometry x="890" y="725" width="40" height="20" as="geometry" />
        </mxCell>
        <mxCell id="q0TIt2UwV6w1tuWzTM8D-93" value="" style="rounded=1;whiteSpace=wrap;html=1;strokeWidth=1;sketch=1;curveFitting=1;jiggle=2;fillColor=#f5f5f5;strokeColor=#666666;fontColor=#333333;" vertex="1" parent="1">
          <mxGeometry x="860" y="705" width="40" height="20" as="geometry" />
        </mxCell>
        <mxCell id="q0TIt2UwV6w1tuWzTM8D-94" value="" style="rounded=1;whiteSpace=wrap;html=1;strokeWidth=1;sketch=1;curveFitting=1;jiggle=2;fillColor=#f5f5f5;strokeColor=#666666;fontColor=#333333;" vertex="1" parent="1">
          <mxGeometry x="900" y="705" width="40" height="20" as="geometry" />
        </mxCell>
        <mxCell id="q0TIt2UwV6w1tuWzTM8D-95" value="" style="rounded=1;whiteSpace=wrap;html=1;strokeWidth=1;sketch=1;curveFitting=1;jiggle=2;fillColor=#f5f5f5;strokeColor=#666666;fontColor=#333333;" vertex="1" parent="1">
          <mxGeometry x="840" y="685" width="40" height="20" as="geometry" />
        </mxCell>
        <mxCell id="q0TIt2UwV6w1tuWzTM8D-96" value="" style="rounded=1;whiteSpace=wrap;html=1;strokeWidth=1;sketch=1;curveFitting=1;jiggle=2;fillColor=#f5f5f5;strokeColor=#666666;fontColor=#333333;" vertex="1" parent="1">
          <mxGeometry x="880" y="685" width="40" height="20" as="geometry" />
        </mxCell>
        <mxCell id="q0TIt2UwV6w1tuWzTM8D-97" value="" style="rounded=1;whiteSpace=wrap;html=1;strokeWidth=1;sketch=1;curveFitting=1;jiggle=2;fillColor=#f5f5f5;strokeColor=#666666;fontColor=#333333;" vertex="1" parent="1">
          <mxGeometry x="870" y="665" width="40" height="20" as="geometry" />
        </mxCell>
        <mxCell id="q0TIt2UwV6w1tuWzTM8D-98" value="" style="rounded=1;whiteSpace=wrap;html=1;strokeWidth=1;sketch=1;curveFitting=1;jiggle=2;fillColor=#f5f5f5;strokeColor=#666666;fontColor=#333333;" vertex="1" parent="1">
          <mxGeometry x="910" y="665" width="40" height="20" as="geometry" />
        </mxCell>
        <mxCell id="q0TIt2UwV6w1tuWzTM8D-99" value="" style="group;fillColor=none;fillStyle=auto;container=0;" vertex="1" connectable="0" parent="1">
          <mxGeometry x="960" y="881" width="190" height="190" as="geometry" />
        </mxCell>
        <mxCell id="q0TIt2UwV6w1tuWzTM8D-158" style="edgeStyle=orthogonalEdgeStyle;rounded=0;orthogonalLoop=1;jettySize=auto;html=1;entryX=0.5;entryY=1;entryDx=0;entryDy=0;curved=1;endArrow=none;endFill=0;" edge="1" parent="1" source="q0TIt2UwV6w1tuWzTM8D-100" target="q0TIt2UwV6w1tuWzTM8D-90">
          <mxGeometry relative="1" as="geometry" />
        </mxCell>
        <mxCell id="q0TIt2UwV6w1tuWzTM8D-100" value="&lt;font color=&quot;#666666&quot;&gt;&amp;nbsp; &amp;nbsp; Router1&amp;nbsp;&lt;/font&gt;&lt;div&gt;&lt;font color=&quot;#666666&quot;&gt;&lt;br&gt;&lt;/font&gt;&lt;/div&gt;&lt;div&gt;&lt;font color=&quot;#666666&quot;&gt;&lt;br&gt;&lt;/font&gt;&lt;/div&gt;&lt;div&gt;&lt;font color=&quot;#666666&quot;&gt;&lt;br&gt;&lt;/font&gt;&lt;/div&gt;&lt;div&gt;&lt;br&gt;&lt;/div&gt;" style="ellipse;whiteSpace=wrap;html=1;aspect=fixed;fillColor=#d5e8d4;strokeColor=#82b366;container=0;align=left;fontSize=18;" vertex="1" parent="1">
          <mxGeometry x="960" y="881" width="190" height="190" as="geometry" />
        </mxCell>
        <mxCell id="q0TIt2UwV6w1tuWzTM8D-101" value="" style="html=1;shadow=0;dashed=0;align=center;verticalAlign=middle;shape=mxgraph.arrows2.arrow;dy=0.67;dx=21.67;direction=north;notch=0;strokeColor=#666666;fillColor=#f5f5f5;fontColor=#333333;sketch=1;curveFitting=1;jiggle=2;container=0;" vertex="1" parent="1">
          <mxGeometry x="1030" y="891" width="50" height="70" as="geometry" />
        </mxCell>
        <mxCell id="q0TIt2UwV6w1tuWzTM8D-102" value="" style="html=1;shadow=0;dashed=0;align=center;verticalAlign=middle;shape=mxgraph.arrows2.arrow;dy=0.67;dx=21.67;direction=north;notch=0;strokeColor=#666666;rotation=-180;fillColor=#f5f5f5;fontColor=#333333;sketch=1;curveFitting=1;jiggle=2;container=0;" vertex="1" parent="1">
          <mxGeometry x="1030" y="991" width="50" height="70" as="geometry" />
        </mxCell>
        <mxCell id="q0TIt2UwV6w1tuWzTM8D-103" value="" style="html=1;shadow=0;dashed=0;align=center;verticalAlign=middle;shape=mxgraph.arrows2.arrow;dy=0.67;dx=21.67;direction=north;notch=0;strokeColor=#666666;rotation=-90;fillColor=#f5f5f5;fontColor=#333333;sketch=1;curveFitting=1;jiggle=2;container=0;" vertex="1" parent="1">
          <mxGeometry x="1080" y="941" width="50" height="70" as="geometry" />
        </mxCell>
        <mxCell id="q0TIt2UwV6w1tuWzTM8D-104" value="" style="html=1;shadow=0;dashed=0;align=center;verticalAlign=middle;shape=mxgraph.arrows2.arrow;dy=0.67;dx=21.67;direction=north;notch=0;strokeColor=#666666;rotation=90;fillColor=#f5f5f5;fontColor=#333333;sketch=1;curveFitting=1;jiggle=2;container=0;" vertex="1" parent="1">
          <mxGeometry x="980" y="941" width="50" height="70" as="geometry" />
        </mxCell>
        <mxCell id="q0TIt2UwV6w1tuWzTM8D-105" value="" style="group;fillColor=none;fillStyle=auto;container=0;" vertex="1" connectable="0" parent="1">
          <mxGeometry x="960" y="1163" width="190" height="190" as="geometry" />
        </mxCell>
        <mxCell id="q0TIt2UwV6w1tuWzTM8D-159" style="edgeStyle=orthogonalEdgeStyle;rounded=0;orthogonalLoop=1;jettySize=auto;html=1;curved=1;endArrow=none;endFill=0;" edge="1" parent="1" source="q0TIt2UwV6w1tuWzTM8D-106" target="q0TIt2UwV6w1tuWzTM8D-100">
          <mxGeometry relative="1" as="geometry" />
        </mxCell>
        <mxCell id="q0TIt2UwV6w1tuWzTM8D-106" value="&lt;font color=&quot;#666666&quot;&gt;&amp;nbsp; &amp;nbsp; Router2&amp;nbsp;&lt;/font&gt;&lt;div&gt;&lt;font color=&quot;#666666&quot;&gt;&lt;br&gt;&lt;/font&gt;&lt;/div&gt;&lt;div&gt;&lt;font color=&quot;#666666&quot;&gt;&lt;br&gt;&lt;/font&gt;&lt;/div&gt;&lt;div&gt;&lt;font color=&quot;#666666&quot;&gt;&lt;br&gt;&lt;/font&gt;&lt;/div&gt;&lt;div&gt;&lt;br&gt;&lt;/div&gt;" style="ellipse;whiteSpace=wrap;html=1;aspect=fixed;fillColor=#d5e8d4;strokeColor=#82b366;container=0;align=left;fontSize=18;" vertex="1" parent="1">
          <mxGeometry x="960" y="1163" width="190" height="190" as="geometry" />
        </mxCell>
        <mxCell id="q0TIt2UwV6w1tuWzTM8D-107" value="" style="html=1;shadow=0;dashed=0;align=center;verticalAlign=middle;shape=mxgraph.arrows2.arrow;dy=0.67;dx=21.67;direction=north;notch=0;strokeColor=#666666;fillColor=#f5f5f5;fontColor=#333333;sketch=1;curveFitting=1;jiggle=2;container=0;" vertex="1" parent="1">
          <mxGeometry x="1030" y="1173" width="50" height="70" as="geometry" />
        </mxCell>
        <mxCell id="q0TIt2UwV6w1tuWzTM8D-108" value="" style="html=1;shadow=0;dashed=0;align=center;verticalAlign=middle;shape=mxgraph.arrows2.arrow;dy=0.67;dx=21.67;direction=north;notch=0;strokeColor=#666666;rotation=-180;fillColor=#f5f5f5;fontColor=#333333;sketch=1;curveFitting=1;jiggle=2;container=0;" vertex="1" parent="1">
          <mxGeometry x="1030" y="1273" width="50" height="70" as="geometry" />
        </mxCell>
        <mxCell id="q0TIt2UwV6w1tuWzTM8D-109" value="" style="html=1;shadow=0;dashed=0;align=center;verticalAlign=middle;shape=mxgraph.arrows2.arrow;dy=0.67;dx=21.67;direction=north;notch=0;strokeColor=#666666;rotation=-90;fillColor=#f5f5f5;fontColor=#333333;sketch=1;curveFitting=1;jiggle=2;container=0;" vertex="1" parent="1">
          <mxGeometry x="1080" y="1223" width="50" height="70" as="geometry" />
        </mxCell>
        <mxCell id="q0TIt2UwV6w1tuWzTM8D-110" value="" style="html=1;shadow=0;dashed=0;align=center;verticalAlign=middle;shape=mxgraph.arrows2.arrow;dy=0.67;dx=21.67;direction=north;notch=0;strokeColor=#666666;rotation=90;fillColor=#f5f5f5;fontColor=#333333;sketch=1;curveFitting=1;jiggle=2;container=0;" vertex="1" parent="1">
          <mxGeometry x="980" y="1223" width="50" height="70" as="geometry" />
        </mxCell>
        <mxCell id="q0TIt2UwV6w1tuWzTM8D-154" style="edgeStyle=orthogonalEdgeStyle;rounded=0;orthogonalLoop=1;jettySize=auto;html=1;endArrow=none;endFill=0;curved=1;" edge="1" parent="1" source="q0TIt2UwV6w1tuWzTM8D-111">
          <mxGeometry relative="1" as="geometry">
            <mxPoint x="100" y="1010" as="targetPoint" />
          </mxGeometry>
        </mxCell>
        <mxCell id="q0TIt2UwV6w1tuWzTM8D-155" style="edgeStyle=orthogonalEdgeStyle;rounded=0;orthogonalLoop=1;jettySize=auto;html=1;entryX=0.5;entryY=0;entryDx=0;entryDy=0;endArrow=none;endFill=0;curved=1;" edge="1" parent="1" source="q0TIt2UwV6w1tuWzTM8D-111" target="q0TIt2UwV6w1tuWzTM8D-134">
          <mxGeometry relative="1" as="geometry" />
        </mxCell>
        <mxCell id="q0TIt2UwV6w1tuWzTM8D-157" style="edgeStyle=orthogonalEdgeStyle;rounded=0;orthogonalLoop=1;jettySize=auto;html=1;entryX=0;entryY=1;entryDx=0;entryDy=0;curved=1;endArrow=none;endFill=0;" edge="1" parent="1" source="q0TIt2UwV6w1tuWzTM8D-111" target="q0TIt2UwV6w1tuWzTM8D-90">
          <mxGeometry relative="1" as="geometry" />
        </mxCell>
        <mxCell id="q0TIt2UwV6w1tuWzTM8D-168" style="edgeStyle=orthogonalEdgeStyle;rounded=0;orthogonalLoop=1;jettySize=auto;html=1;exitX=0;exitY=0.25;exitDx=0;exitDy=0;strokeColor=#FF3333;strokeWidth=3;curved=1;" edge="1" parent="1" source="q0TIt2UwV6w1tuWzTM8D-111">
          <mxGeometry relative="1" as="geometry">
            <mxPoint x="50" y="660" as="targetPoint" />
          </mxGeometry>
        </mxCell>
        <mxCell id="q0TIt2UwV6w1tuWzTM8D-171" style="edgeStyle=orthogonalEdgeStyle;rounded=0;orthogonalLoop=1;jettySize=auto;html=1;exitX=0.75;exitY=1;exitDx=0;exitDy=0;entryX=1;entryY=0.25;entryDx=0;entryDy=0;strokeColor=#FF3333;strokeWidth=3;curved=1;" edge="1" parent="1" source="q0TIt2UwV6w1tuWzTM8D-111" target="q0TIt2UwV6w1tuWzTM8D-134">
          <mxGeometry relative="1" as="geometry" />
        </mxCell>
        <mxCell id="q0TIt2UwV6w1tuWzTM8D-175" style="edgeStyle=orthogonalEdgeStyle;rounded=0;orthogonalLoop=1;jettySize=auto;html=1;entryX=1;entryY=0;entryDx=0;entryDy=0;strokeWidth=3;strokeColor=#FF3333;curved=1;" edge="1" parent="1" source="q0TIt2UwV6w1tuWzTM8D-111" target="q0TIt2UwV6w1tuWzTM8D-12">
          <mxGeometry relative="1" as="geometry">
            <Array as="points">
              <mxPoint x="720" y="870" />
              <mxPoint x="720" y="270" />
            </Array>
          </mxGeometry>
        </mxCell>
        <mxCell id="q0TIt2UwV6w1tuWzTM8D-111" value="&lt;font style=&quot;font-size: 18px;&quot; color=&quot;#666666&quot;&gt;Switch 2&lt;/font&gt;&lt;div&gt;&lt;font color=&quot;#666666&quot;&gt;&lt;br&gt;&lt;/font&gt;&lt;/div&gt;&lt;div&gt;&lt;font color=&quot;#666666&quot;&gt;&lt;br&gt;&lt;/font&gt;&lt;/div&gt;&lt;div&gt;&lt;font color=&quot;#666666&quot;&gt;&lt;br&gt;&lt;/font&gt;&lt;/div&gt;&lt;div&gt;&lt;font color=&quot;#666666&quot;&gt;&lt;br&gt;&lt;/font&gt;&lt;/div&gt;&lt;div&gt;&lt;font color=&quot;#666666&quot;&gt;&lt;br&gt;&lt;/font&gt;&lt;/div&gt;&lt;div&gt;&lt;font color=&quot;#666666&quot;&gt;&lt;br&gt;&lt;/font&gt;&lt;/div&gt;&lt;div&gt;&lt;font color=&quot;#666666&quot;&gt;&lt;br&gt;&lt;/font&gt;&lt;/div&gt;&lt;div&gt;&lt;font color=&quot;#666666&quot;&gt;&lt;br&gt;&lt;/font&gt;&lt;/div&gt;&lt;div&gt;&lt;br&gt;&lt;/div&gt;" style="rounded=1;whiteSpace=wrap;html=1;fillColor=#f5f5f5;strokeColor=#666666;container=0;fontColor=#333333;" vertex="1" parent="1">
          <mxGeometry x="340" y="806" width="160" height="160" as="geometry" />
        </mxCell>
        <mxCell id="q0TIt2UwV6w1tuWzTM8D-112" value="" style="html=1;shadow=0;dashed=0;align=center;verticalAlign=middle;shape=mxgraph.arrows2.arrow;dy=0.67;dx=21.67;direction=north;notch=0;strokeColor=#666666;rotation=90;fillColor=#f5f5f5;sketch=1;curveFitting=1;jiggle=2;fontColor=#333333;container=0;" vertex="1" parent="1">
          <mxGeometry x="410" y="804" width="50" height="78" as="geometry" />
        </mxCell>
        <mxCell id="q0TIt2UwV6w1tuWzTM8D-113" value="" style="html=1;shadow=0;dashed=0;align=center;verticalAlign=middle;shape=mxgraph.arrows2.arrow;dy=0.67;dx=21.67;direction=north;notch=0;strokeColor=#666666;rotation=90;fillColor=#f5f5f5;fontColor=#333333;sketch=1;curveFitting=1;jiggle=2;container=0;" vertex="1" parent="1">
          <mxGeometry x="426" y="870" width="50" height="70" as="geometry" />
        </mxCell>
        <mxCell id="q0TIt2UwV6w1tuWzTM8D-114" value="" style="html=1;shadow=0;dashed=0;align=center;verticalAlign=middle;shape=mxgraph.arrows2.arrow;dy=0.67;dx=21.67;direction=north;notch=0;strokeColor=#666666;rotation=-90;fillColor=#f5f5f5;fontColor=#333333;sketch=1;curveFitting=1;jiggle=2;container=0;" vertex="1" parent="1">
          <mxGeometry x="364" y="838" width="50" height="70" as="geometry" />
        </mxCell>
        <mxCell id="q0TIt2UwV6w1tuWzTM8D-115" value="" style="html=1;shadow=0;dashed=0;align=center;verticalAlign=middle;shape=mxgraph.arrows2.arrow;dy=0.67;dx=21.67;direction=north;notch=0;strokeColor=#666666;rotation=-90;fillColor=#f5f5f5;fontColor=#333333;sketch=1;curveFitting=1;jiggle=2;container=0;" vertex="1" parent="1">
          <mxGeometry x="381" y="898" width="50" height="70" as="geometry" />
        </mxCell>
        <mxCell id="q0TIt2UwV6w1tuWzTM8D-116" value="&lt;font style=&quot;font-size: 18px;&quot; color=&quot;#666666&quot;&gt;Switch 3&lt;/font&gt;&lt;div&gt;&lt;font color=&quot;#666666&quot;&gt;&lt;br&gt;&lt;/font&gt;&lt;/div&gt;&lt;div&gt;&lt;font color=&quot;#666666&quot;&gt;&lt;br&gt;&lt;/font&gt;&lt;/div&gt;&lt;div&gt;&lt;font color=&quot;#666666&quot;&gt;&lt;br&gt;&lt;/font&gt;&lt;/div&gt;&lt;div&gt;&lt;font color=&quot;#666666&quot;&gt;&lt;br&gt;&lt;/font&gt;&lt;/div&gt;&lt;div&gt;&lt;font color=&quot;#666666&quot;&gt;&lt;br&gt;&lt;/font&gt;&lt;/div&gt;&lt;div&gt;&lt;font color=&quot;#666666&quot;&gt;&lt;br&gt;&lt;/font&gt;&lt;/div&gt;&lt;div&gt;&lt;font color=&quot;#666666&quot;&gt;&lt;br&gt;&lt;/font&gt;&lt;/div&gt;&lt;div&gt;&lt;font color=&quot;#666666&quot;&gt;&lt;br&gt;&lt;/font&gt;&lt;/div&gt;&lt;div&gt;&lt;br&gt;&lt;/div&gt;" style="rounded=1;whiteSpace=wrap;html=1;fillColor=#d5e8d4;strokeColor=#82b366;container=0;" vertex="1" parent="1">
          <mxGeometry x="460" y="1080" width="160" height="160" as="geometry" />
        </mxCell>
        <mxCell id="q0TIt2UwV6w1tuWzTM8D-117" value="" style="html=1;shadow=0;dashed=0;align=center;verticalAlign=middle;shape=mxgraph.arrows2.arrow;dy=0.67;dx=21.67;direction=north;notch=0;strokeColor=#666666;rotation=90;fillColor=#f5f5f5;sketch=1;curveFitting=1;jiggle=2;fontColor=#333333;container=0;" vertex="1" parent="1">
          <mxGeometry x="530" y="1078" width="50" height="78" as="geometry" />
        </mxCell>
        <mxCell id="q0TIt2UwV6w1tuWzTM8D-118" value="" style="html=1;shadow=0;dashed=0;align=center;verticalAlign=middle;shape=mxgraph.arrows2.arrow;dy=0.67;dx=21.67;direction=north;notch=0;strokeColor=#666666;rotation=90;fillColor=#f5f5f5;fontColor=#333333;sketch=1;curveFitting=1;jiggle=2;container=0;" vertex="1" parent="1">
          <mxGeometry x="546" y="1144" width="50" height="70" as="geometry" />
        </mxCell>
        <mxCell id="q0TIt2UwV6w1tuWzTM8D-119" value="" style="html=1;shadow=0;dashed=0;align=center;verticalAlign=middle;shape=mxgraph.arrows2.arrow;dy=0.67;dx=21.67;direction=north;notch=0;strokeColor=#666666;rotation=-90;fillColor=#f5f5f5;fontColor=#333333;sketch=1;curveFitting=1;jiggle=2;container=0;" vertex="1" parent="1">
          <mxGeometry x="484" y="1112" width="50" height="70" as="geometry" />
        </mxCell>
        <mxCell id="q0TIt2UwV6w1tuWzTM8D-120" value="" style="html=1;shadow=0;dashed=0;align=center;verticalAlign=middle;shape=mxgraph.arrows2.arrow;dy=0.67;dx=21.67;direction=north;notch=0;strokeColor=#666666;rotation=-90;fillColor=#f5f5f5;fontColor=#333333;sketch=1;curveFitting=1;jiggle=2;container=0;" vertex="1" parent="1">
          <mxGeometry x="501" y="1172" width="50" height="70" as="geometry" />
        </mxCell>
        <mxCell id="q0TIt2UwV6w1tuWzTM8D-121" value="" style="group" vertex="1" connectable="0" parent="1">
          <mxGeometry x="20" y="1012" width="180" height="66" as="geometry" />
        </mxCell>
        <mxCell id="q0TIt2UwV6w1tuWzTM8D-122" value="" style="group;fillColor=#d5e8d4;strokeColor=#82b366;" vertex="1" connectable="0" parent="q0TIt2UwV6w1tuWzTM8D-121">
          <mxGeometry width="160" height="36" as="geometry" />
        </mxCell>
        <mxCell id="q0TIt2UwV6w1tuWzTM8D-123" value="" style="rounded=1;whiteSpace=wrap;html=1;strokeWidth=4;fillColor=#d5e8d4;strokeColor=#82b366;" vertex="1" parent="q0TIt2UwV6w1tuWzTM8D-122">
          <mxGeometry width="160" height="36" as="geometry" />
        </mxCell>
        <mxCell id="q0TIt2UwV6w1tuWzTM8D-124" value="" style="ellipse;whiteSpace=wrap;html=1;aspect=fixed;strokeWidth=3;fillColor=#d5e8d4;strokeColor=#82b366;" vertex="1" parent="q0TIt2UwV6w1tuWzTM8D-122">
          <mxGeometry x="20" y="12" width="12" height="12" as="geometry" />
        </mxCell>
        <mxCell id="q0TIt2UwV6w1tuWzTM8D-125" value="" style="rounded=1;whiteSpace=wrap;html=1;strokeWidth=3;fillColor=#d5e8d4;strokeColor=#82b366;" vertex="1" parent="q0TIt2UwV6w1tuWzTM8D-122">
          <mxGeometry x="54" y="6" width="28" height="10" as="geometry" />
        </mxCell>
        <mxCell id="q0TIt2UwV6w1tuWzTM8D-126" value="" style="rounded=1;whiteSpace=wrap;html=1;strokeWidth=3;fillColor=#d5e8d4;strokeColor=#82b366;" vertex="1" parent="q0TIt2UwV6w1tuWzTM8D-122">
          <mxGeometry x="88" y="6" width="28" height="10" as="geometry" />
        </mxCell>
        <mxCell id="q0TIt2UwV6w1tuWzTM8D-127" value="" style="rounded=1;whiteSpace=wrap;html=1;strokeWidth=3;fillColor=#d5e8d4;strokeColor=#82b366;" vertex="1" parent="q0TIt2UwV6w1tuWzTM8D-122">
          <mxGeometry x="122" y="6" width="28" height="10" as="geometry" />
        </mxCell>
        <mxCell id="q0TIt2UwV6w1tuWzTM8D-128" value="" style="rounded=1;whiteSpace=wrap;html=1;strokeWidth=3;fillColor=#d5e8d4;strokeColor=#82b366;" vertex="1" parent="q0TIt2UwV6w1tuWzTM8D-122">
          <mxGeometry x="54" y="20" width="28" height="10" as="geometry" />
        </mxCell>
        <mxCell id="q0TIt2UwV6w1tuWzTM8D-129" value="" style="rounded=1;whiteSpace=wrap;html=1;strokeWidth=3;fillColor=#d5e8d4;strokeColor=#82b366;" vertex="1" parent="q0TIt2UwV6w1tuWzTM8D-122">
          <mxGeometry x="88" y="20" width="28" height="10" as="geometry" />
        </mxCell>
        <mxCell id="q0TIt2UwV6w1tuWzTM8D-130" value="" style="rounded=1;whiteSpace=wrap;html=1;strokeWidth=3;fillColor=#d5e8d4;strokeColor=#82b366;" vertex="1" parent="q0TIt2UwV6w1tuWzTM8D-122">
          <mxGeometry x="122" y="20" width="28" height="10" as="geometry" />
        </mxCell>
        <mxCell id="q0TIt2UwV6w1tuWzTM8D-131" value="&lt;b&gt;&lt;font style=&quot;font-size: 19px;&quot;&gt;Comp1&lt;/font&gt;&lt;/b&gt;" style="rounded=1;whiteSpace=wrap;html=1;fillColor=#d5e8d4;strokeColor=#82b366;fontSize=20;" vertex="1" parent="q0TIt2UwV6w1tuWzTM8D-121">
          <mxGeometry x="90" y="40" width="90" height="26" as="geometry" />
        </mxCell>
        <mxCell id="q0TIt2UwV6w1tuWzTM8D-132" value="" style="group" vertex="1" connectable="0" parent="1">
          <mxGeometry x="251" y="1008" width="180" height="66" as="geometry" />
        </mxCell>
        <mxCell id="q0TIt2UwV6w1tuWzTM8D-133" value="" style="group;fillColor=#d5e8d4;strokeColor=#82b366;" vertex="1" connectable="0" parent="q0TIt2UwV6w1tuWzTM8D-132">
          <mxGeometry width="160" height="36" as="geometry" />
        </mxCell>
        <mxCell id="q0TIt2UwV6w1tuWzTM8D-134" value="" style="rounded=1;whiteSpace=wrap;html=1;strokeWidth=4;fillColor=#d5e8d4;strokeColor=#82b366;" vertex="1" parent="q0TIt2UwV6w1tuWzTM8D-133">
          <mxGeometry width="160" height="36" as="geometry" />
        </mxCell>
        <mxCell id="q0TIt2UwV6w1tuWzTM8D-135" value="" style="ellipse;whiteSpace=wrap;html=1;aspect=fixed;strokeWidth=3;fillColor=#d5e8d4;strokeColor=#82b366;" vertex="1" parent="q0TIt2UwV6w1tuWzTM8D-133">
          <mxGeometry x="20" y="12" width="12" height="12" as="geometry" />
        </mxCell>
        <mxCell id="q0TIt2UwV6w1tuWzTM8D-136" value="" style="rounded=1;whiteSpace=wrap;html=1;strokeWidth=3;fillColor=#d5e8d4;strokeColor=#82b366;" vertex="1" parent="q0TIt2UwV6w1tuWzTM8D-133">
          <mxGeometry x="54" y="6" width="28" height="10" as="geometry" />
        </mxCell>
        <mxCell id="q0TIt2UwV6w1tuWzTM8D-137" value="" style="rounded=1;whiteSpace=wrap;html=1;strokeWidth=3;fillColor=#d5e8d4;strokeColor=#82b366;" vertex="1" parent="q0TIt2UwV6w1tuWzTM8D-133">
          <mxGeometry x="88" y="6" width="28" height="10" as="geometry" />
        </mxCell>
        <mxCell id="q0TIt2UwV6w1tuWzTM8D-138" value="" style="rounded=1;whiteSpace=wrap;html=1;strokeWidth=3;fillColor=#d5e8d4;strokeColor=#82b366;" vertex="1" parent="q0TIt2UwV6w1tuWzTM8D-133">
          <mxGeometry x="122" y="6" width="28" height="10" as="geometry" />
        </mxCell>
        <mxCell id="q0TIt2UwV6w1tuWzTM8D-139" value="" style="rounded=1;whiteSpace=wrap;html=1;strokeWidth=3;fillColor=#d5e8d4;strokeColor=#82b366;" vertex="1" parent="q0TIt2UwV6w1tuWzTM8D-133">
          <mxGeometry x="54" y="20" width="28" height="10" as="geometry" />
        </mxCell>
        <mxCell id="q0TIt2UwV6w1tuWzTM8D-140" value="" style="rounded=1;whiteSpace=wrap;html=1;strokeWidth=3;fillColor=#d5e8d4;strokeColor=#82b366;" vertex="1" parent="q0TIt2UwV6w1tuWzTM8D-133">
          <mxGeometry x="88" y="20" width="28" height="10" as="geometry" />
        </mxCell>
        <mxCell id="q0TIt2UwV6w1tuWzTM8D-141" value="" style="rounded=1;whiteSpace=wrap;html=1;strokeWidth=3;fillColor=#d5e8d4;strokeColor=#82b366;" vertex="1" parent="q0TIt2UwV6w1tuWzTM8D-133">
          <mxGeometry x="122" y="20" width="28" height="10" as="geometry" />
        </mxCell>
        <mxCell id="q0TIt2UwV6w1tuWzTM8D-142" value="&lt;b&gt;&lt;font style=&quot;font-size: 19px;&quot;&gt;Comp2&lt;/font&gt;&lt;/b&gt;" style="rounded=1;whiteSpace=wrap;html=1;fillColor=#d5e8d4;strokeColor=#82b366;fontSize=20;" vertex="1" parent="q0TIt2UwV6w1tuWzTM8D-132">
          <mxGeometry x="90" y="40" width="90" height="26" as="geometry" />
        </mxCell>
        <mxCell id="q0TIt2UwV6w1tuWzTM8D-156" style="edgeStyle=orthogonalEdgeStyle;rounded=0;orthogonalLoop=1;jettySize=auto;html=1;entryX=0.804;entryY=0.983;entryDx=0;entryDy=0;entryPerimeter=0;endArrow=none;endFill=0;curved=1;" edge="1" parent="1" source="q0TIt2UwV6w1tuWzTM8D-116" target="q0TIt2UwV6w1tuWzTM8D-111">
          <mxGeometry relative="1" as="geometry" />
        </mxCell>
        <mxCell id="q0TIt2UwV6w1tuWzTM8D-160" style="edgeStyle=orthogonalEdgeStyle;rounded=0;orthogonalLoop=1;jettySize=auto;html=1;entryX=0.998;entryY=0.469;entryDx=0;entryDy=0;entryPerimeter=0;endArrow=none;endFill=0;curved=1;" edge="1" parent="1" source="q0TIt2UwV6w1tuWzTM8D-90" target="q0TIt2UwV6w1tuWzTM8D-34">
          <mxGeometry relative="1" as="geometry">
            <Array as="points">
              <mxPoint x="760" y="705" />
              <mxPoint x="760" y="477" />
            </Array>
          </mxGeometry>
        </mxCell>
        <mxCell id="q0TIt2UwV6w1tuWzTM8D-161" style="edgeStyle=orthogonalEdgeStyle;rounded=0;orthogonalLoop=1;jettySize=auto;html=1;entryX=0.218;entryY=0.982;entryDx=0;entryDy=0;entryPerimeter=0;curved=1;endArrow=none;endFill=0;" edge="1" parent="1" source="q0TIt2UwV6w1tuWzTM8D-41" target="q0TIt2UwV6w1tuWzTM8D-34">
          <mxGeometry relative="1" as="geometry">
            <Array as="points">
              <mxPoint x="100" y="580" />
              <mxPoint x="375" y="580" />
            </Array>
          </mxGeometry>
        </mxCell>
        <mxCell id="q0TIt2UwV6w1tuWzTM8D-162" value="" style="edgeStyle=orthogonalEdgeStyle;rounded=0;orthogonalLoop=1;jettySize=auto;html=1;curved=1;endArrow=none;endFill=0;" edge="1" parent="1" source="q0TIt2UwV6w1tuWzTM8D-52" target="q0TIt2UwV6w1tuWzTM8D-34">
          <mxGeometry relative="1" as="geometry" />
        </mxCell>
        <mxCell id="q0TIt2UwV6w1tuWzTM8D-163" style="edgeStyle=orthogonalEdgeStyle;rounded=0;orthogonalLoop=1;jettySize=auto;html=1;entryX=0.75;entryY=1;entryDx=0;entryDy=0;curved=1;endArrow=none;endFill=0;" edge="1" parent="1" source="q0TIt2UwV6w1tuWzTM8D-63" target="q0TIt2UwV6w1tuWzTM8D-34">
          <mxGeometry relative="1" as="geometry" />
        </mxCell>
        <mxCell id="q0TIt2UwV6w1tuWzTM8D-164" style="edgeStyle=orthogonalEdgeStyle;rounded=0;orthogonalLoop=1;jettySize=auto;html=1;entryX=0.56;entryY=1.001;entryDx=0;entryDy=0;entryPerimeter=0;endArrow=none;endFill=0;" edge="1" parent="1" source="q0TIt2UwV6w1tuWzTM8D-34" target="q0TIt2UwV6w1tuWzTM8D-12">
          <mxGeometry relative="1" as="geometry" />
        </mxCell>
        <mxCell id="q0TIt2UwV6w1tuWzTM8D-165" style="edgeStyle=orthogonalEdgeStyle;rounded=0;orthogonalLoop=1;jettySize=auto;html=1;entryX=0.5;entryY=1;entryDx=0;entryDy=0;endArrow=none;endFill=0;" edge="1" parent="1" source="q0TIt2UwV6w1tuWzTM8D-12" target="q0TIt2UwV6w1tuWzTM8D-2">
          <mxGeometry relative="1" as="geometry" />
        </mxCell>
        <mxCell id="q0TIt2UwV6w1tuWzTM8D-166" style="edgeStyle=orthogonalEdgeStyle;rounded=0;orthogonalLoop=1;jettySize=auto;html=1;entryX=1;entryY=0.25;entryDx=0;entryDy=0;strokeWidth=3;dashed=1;strokeColor=#999999;curved=1;" edge="1" parent="1" source="q0TIt2UwV6w1tuWzTM8D-12" target="q0TIt2UwV6w1tuWzTM8D-111">
          <mxGeometry relative="1" as="geometry">
            <Array as="points">
              <mxPoint x="690" y="288" />
              <mxPoint x="690" y="846" />
            </Array>
          </mxGeometry>
        </mxCell>
        <mxCell id="q0TIt2UwV6w1tuWzTM8D-167" style="edgeStyle=orthogonalEdgeStyle;rounded=0;orthogonalLoop=1;jettySize=auto;html=1;curved=1;strokeColor=#999999;strokeWidth=3;dashed=1;" edge="1" parent="1" source="q0TIt2UwV6w1tuWzTM8D-46" target="q0TIt2UwV6w1tuWzTM8D-111">
          <mxGeometry relative="1" as="geometry">
            <mxPoint x="510" y="840" as="targetPoint" />
            <Array as="points">
              <mxPoint x="88" y="770" />
              <mxPoint x="420" y="770" />
            </Array>
          </mxGeometry>
        </mxCell>
        <mxCell id="q0TIt2UwV6w1tuWzTM8D-169" style="edgeStyle=orthogonalEdgeStyle;rounded=0;orthogonalLoop=1;jettySize=auto;html=1;exitX=0;exitY=0.75;exitDx=0;exitDy=0;entryX=0.813;entryY=-0.056;entryDx=0;entryDy=0;entryPerimeter=0;strokeColor=#FF3333;strokeWidth=3;curved=1;" edge="1" parent="1" source="q0TIt2UwV6w1tuWzTM8D-111" target="q0TIt2UwV6w1tuWzTM8D-123">
          <mxGeometry relative="1" as="geometry" />
        </mxCell>
        <mxCell id="q0TIt2UwV6w1tuWzTM8D-172" style="edgeStyle=orthogonalEdgeStyle;rounded=0;orthogonalLoop=1;jettySize=auto;html=1;exitX=1;exitY=0.75;exitDx=0;exitDy=0;entryX=0.906;entryY=-0.012;entryDx=0;entryDy=0;entryPerimeter=0;strokeColor=#FF3333;strokeWidth=3;curved=1;" edge="1" parent="1" source="q0TIt2UwV6w1tuWzTM8D-111" target="q0TIt2UwV6w1tuWzTM8D-116">
          <mxGeometry relative="1" as="geometry" />
        </mxCell>
        <mxCell id="q0TIt2UwV6w1tuWzTM8D-173" style="edgeStyle=orthogonalEdgeStyle;rounded=0;orthogonalLoop=1;jettySize=auto;html=1;exitX=1;exitY=0.75;exitDx=0;exitDy=0;entryX=0.374;entryY=1;entryDx=0;entryDy=0;entryPerimeter=0;strokeWidth=3;curved=1;strokeColor=#FF3333;" edge="1" parent="1" source="q0TIt2UwV6w1tuWzTM8D-111" target="q0TIt2UwV6w1tuWzTM8D-90">
          <mxGeometry relative="1" as="geometry" />
        </mxCell>
        <mxCell id="q0TIt2UwV6w1tuWzTM8D-176" value="&lt;div&gt;&lt;span style=&quot;font-size: 14px;&quot;&gt;&amp;nbsp;Parent-Child Relationship&lt;/span&gt;&lt;/div&gt;&lt;div&gt;&lt;br&gt;&lt;/div&gt;&lt;div&gt;&lt;font style=&quot;font-size: 14px;&quot;&gt;&amp;nbsp;Host Dependency&lt;/font&gt;&lt;/div&gt;&lt;div&gt;&lt;font style=&quot;font-size: 14px;&quot;&gt;&lt;br&gt;&lt;/font&gt;&lt;/div&gt;&lt;div&gt;&lt;font style=&quot;font-size: 14px;&quot;&gt;&amp;nbsp;Parallel Host Check&lt;/font&gt;&lt;/div&gt;&lt;div&gt;&lt;font style=&quot;font-size: 14px;&quot;&gt;&lt;br&gt;&lt;/font&gt;&lt;/div&gt;&lt;div&gt;&lt;font style=&quot;font-size: 14px;&quot;&gt;&amp;nbsp;UP&lt;/font&gt;&lt;/div&gt;&lt;div&gt;&lt;font style=&quot;font-size: 14px;&quot;&gt;&lt;br&gt;&lt;/font&gt;&lt;/div&gt;&lt;div&gt;&lt;font style=&quot;font-size: 14px;&quot;&gt;&amp;nbsp;Not UP&lt;/font&gt;&lt;/div&gt;&lt;div&gt;&lt;font style=&quot;font-size: 14px;&quot;&gt;&lt;br&gt;&lt;/font&gt;&lt;/div&gt;&lt;div&gt;&lt;font style=&quot;font-size: 14px;&quot;&gt;&amp;nbsp;DOWN&lt;/font&gt;&lt;/div&gt;&lt;div&gt;&lt;font style=&quot;font-size: 14px;&quot;&gt;&lt;br&gt;&lt;/font&gt;&lt;/div&gt;&lt;div&gt;&lt;font style=&quot;font-size: 14px;&quot;&gt;&amp;nbsp;UNRACHABLE&lt;/font&gt;&lt;/div&gt;" style="rounded=0;whiteSpace=wrap;html=1;fillColor=#eeeeee;strokeColor=#36393d;align=left;" vertex="1" parent="1">
          <mxGeometry x="760" y="150" width="360" height="270" as="geometry" />
        </mxCell>
        <mxCell id="q0TIt2UwV6w1tuWzTM8D-179" value="" style="rounded=1;whiteSpace=wrap;html=1;strokeWidth=4;fillColor=#d5e8d4;strokeColor=#82b366;" vertex="1" parent="1">
          <mxGeometry x="878" y="275" width="20" height="20" as="geometry" />
        </mxCell>
        <mxCell id="q0TIt2UwV6w1tuWzTM8D-188" value="" style="rounded=1;whiteSpace=wrap;html=1;strokeWidth=4;fillColor=#f5f5f5;strokeColor=#666666;fontColor=#333333;" vertex="1" parent="1">
          <mxGeometry x="879" y="307" width="20" height="20" as="geometry" />
        </mxCell>
        <mxCell id="q0TIt2UwV6w1tuWzTM8D-189" value="" style="rounded=1;whiteSpace=wrap;html=1;strokeWidth=4;fillColor=#f8cecc;strokeColor=#b85450;" vertex="1" parent="1">
          <mxGeometry x="879" y="340" width="20" height="20" as="geometry" />
        </mxCell>
        <mxCell id="q0TIt2UwV6w1tuWzTM8D-190" value="" style="rounded=1;whiteSpace=wrap;html=1;strokeWidth=4;fillColor=#ffe6cc;strokeColor=#d79b00;" vertex="1" parent="1">
          <mxGeometry x="879" y="373" width="20" height="20" as="geometry" />
        </mxCell>
        <mxCell id="q0TIt2UwV6w1tuWzTM8D-193" value="" style="endArrow=none;html=1;rounded=0;endFill=0;entryX=0.694;entryY=0.133;entryDx=0;entryDy=0;entryPerimeter=0;" edge="1" parent="1" target="q0TIt2UwV6w1tuWzTM8D-176">
          <mxGeometry width="50" height="50" relative="1" as="geometry">
            <mxPoint x="950" y="186" as="sourcePoint" />
            <mxPoint x="1000" y="186" as="targetPoint" />
          </mxGeometry>
        </mxCell>
        <mxCell id="q0TIt2UwV6w1tuWzTM8D-194" value="" style="endArrow=classic;html=1;rounded=0;endFill=1;entryX=0.694;entryY=0.133;entryDx=0;entryDy=0;entryPerimeter=0;strokeWidth=3;dashed=1;strokeColor=#999999;" edge="1" parent="1">
          <mxGeometry width="50" height="50" relative="1" as="geometry">
            <mxPoint x="950" y="218" as="sourcePoint" />
            <mxPoint x="1010" y="218" as="targetPoint" />
          </mxGeometry>
        </mxCell>
        <mxCell id="q0TIt2UwV6w1tuWzTM8D-195" value="" style="endArrow=classic;html=1;rounded=0;endFill=1;entryX=0.694;entryY=0.133;entryDx=0;entryDy=0;entryPerimeter=0;strokeWidth=3;strokeColor=#ff3333;" edge="1" parent="1">
          <mxGeometry width="50" height="50" relative="1" as="geometry">
            <mxPoint x="950" y="250" as="sourcePoint" />
            <mxPoint x="1010" y="250" as="targetPoint" />
          </mxGeometry>
        </mxCell>
      </root>
    </mxGraphModel>
  </diagram>
</mxfile>
